<svg width="60" height="46" viewBox="0 0 60 46" fill="none" xmlns="http://www.w3.org/2000/svg">
<g clip-path="url(#clip0_286_27)">
<path d="M45.4399 22C41.4399 15.59 37.4399 9.19004 33.5399 2.75004C33.0957 2.08995 32.9204 1.28508 33.0499 0.500037C33.1699 0.120037 34.3699 -0.0599631 35.0499 -0.0699631C38.0499 -0.139963 41.0499 -0.0699631 44.0499 -0.0699631C44.9312 -0.11225 45.8069 0.0917595 46.5787 0.519196C47.3506 0.946632 47.9882 1.5806 48.4199 2.35004C52.1733 8.47004 55.9333 14.5867 59.6999 20.7C60.2205 21.4466 60.4995 22.3349 60.4995 23.245C60.4995 24.1552 60.2205 25.0434 59.6999 25.79C57.5699 29.15 55.4699 32.51 53.3599 35.88L50.9099 30.88L48.4199 26.88L45.4399 22Z" fill="#199F59"/>
<path d="M15 23.84C19 30.41 23 37 27 43.55C27.36 44.16 27.77 45.25 27.49 45.61C26.9116 46.1521 26.1423 46.4433 25.35 46.42C22.41 46.51 19.46 46.42 16.52 46.42C15.6385 46.4759 14.7592 46.2822 13.9827 45.8613C13.2063 45.4403 12.5642 44.8091 12.13 44.04C8.29662 37.88 4.47662 31.7 0.669954 25.5C0.232454 24.8811 -0.0131714 24.1471 -0.0362893 23.3896C-0.0594072 22.632 0.141005 21.8844 0.539954 21.24C2.68995 17.72 4.91996 14.24 7.11996 10.76C7.92662 12.3267 8.74329 13.8967 9.56995 15.47L12.09 19.47L15 23.84Z" fill="#577EBF"/>
<path d="M45.44 22L48.44 26.81C47.434 27.5771 46.4849 28.416 45.6 29.32C45.422 29.5771 45.3113 29.8748 45.2781 30.1858C45.2449 30.4968 45.2903 30.8111 45.41 31.1C46.3432 31.9559 47.3468 32.732 48.41 33.42C48.84 33.84 49.27 34.28 49.72 34.69C50.64 35.55 51.57 36.4 52.51 37.26C51.11 39.67 49.79 42.12 48.3 44.46C47.8744 45.122 47.2783 45.657 46.5744 46.009C45.8706 46.3609 45.0849 46.5167 44.3 46.46C41.3 46.46 38.21 46.46 35.17 46.39C34.46 46.39 33.44 46.18 33.17 45.7C32.9 45.22 33.22 44.24 33.58 43.65C37 38 40.46 32.26 44 26.63C44.9357 25.2671 45.4377 23.6532 45.44 22V22Z" fill="#F7C542"/>
<path d="M14.9999 23.84L12.1099 19.44C12.4899 19.19 12.8899 18.96 13.2599 18.7C15.1799 17.36 15.6999 15.43 14.3499 13.89C13.4696 13.0622 12.508 12.3252 11.4799 11.69L8.31995 8.79003C9.64995 6.52003 10.9199 4.21003 12.3199 1.99003C12.7451 1.30472 13.3481 0.747518 14.0648 0.377724C14.7815 0.00792947 15.5851 -0.160616 16.3899 -0.10997C19.5899 -0.10997 22.7899 -0.10997 25.9999 -0.10997C27.7099 -0.10997 28.2099 0.780031 27.3099 2.27003C23.8999 7.86003 20.4199 13.42 17.0699 19.06C16.2746 20.6057 15.5831 22.2025 14.9999 23.84V23.84Z" fill="#D54038"/>
<path d="M8.29999 8.79004L11.46 11.69C11.13 13.1 10.96 14.59 9.56999 15.47C8.74999 13.8967 7.93333 12.3267 7.12 10.76L8.29999 8.79004Z" fill="#BE3E37"/>
<path d="M52.4899 37.26C51.5499 36.4 50.6199 35.55 49.6999 34.69C49.2499 34.28 48.8199 33.84 48.3899 33.42L50.9299 30.83L53.3799 35.83L52.4899 37.26Z" fill="#E0B33D"/>
<path d="M50.93 30.8301L48.39 33.4201C47.3268 32.7321 46.3232 31.956 45.39 31.1001C45.2703 30.8111 45.2249 30.4968 45.2581 30.1858C45.2913 29.8749 45.402 29.5772 45.58 29.3201C46.4649 28.416 47.414 27.5772 48.4199 26.8101L50.93 30.8301Z" fill="#EBBC3F"/>
<path d="M9.56995 15.47C10.9599 14.59 11.1299 13.1 11.4599 11.69C12.488 12.3251 13.4496 13.0622 14.3299 13.89C15.6799 15.43 15.1599 17.36 13.2399 18.7C12.8699 18.96 12.4699 19.19 12.0899 19.44L9.56995 15.47Z" fill="#C93E36"/>
</g>
<defs>
<clipPath id="clip0_286_27">
<rect width="60" height="46" fill="white"/>
</clipPath>
</defs>
</svg>
