<?xml version="1.0" encoding="UTF-8"?>
<!DOCTYPE svg  PUBLIC '-//W3C//DTD SVG 1.1//EN'  'http://www.w3.org/Graphics/SVG/1.1/DTD/svg11.dtd'>
<svg clip-rule="evenodd" fill-rule="evenodd" stroke-linejoin="round" stroke-miterlimit="2" version="1.1" viewBox="0 0 128 128" xml:space="preserve" xmlns="http://www.w3.org/2000/svg"><g transform="matrix(1.253 0 0 1.253 -16.308 4.5719)" fill="#61dafb"><circle cx="64" cy="47.5" r="9.3"/><path d="m64 81.7c7.3 7.1 14.5 11.3 20.3 11.3 1.9 0 3.7-0.4 5.2-1.3 5.2-3 7.1-10.5 5.3-21.2-0.3-1.9-0.7-3.8-1.2-5.8 2-0.6 3.8-1.2 5.6-1.8 10.1-3.9 15.7-9.3 15.7-15.2 0-6-5.6-11.4-15.7-15.2-1.8-0.7-3.6-1.3-5.6-1.8 0.5-2 0.9-3.9 1.2-5.8 1.7-10.9-0.2-18.5-5.4-21.5-1.5-0.9-3.3-1.3-5.2-1.3-5.7 0-13 4.2-20.3 11.3-7.2-7.1-14.4-11.3-20.2-11.3-1.9 0-3.7 0.4-5.2 1.3-5.2 3-7.1 10.5-5.3 21.2 0.3 1.9 0.7 3.8 1.2 5.8-2 0.6-3.8 1.2-5.6 1.8-10.1 3.9-15.7 9.3-15.7 15.2 0 6 5.6 11.4 15.7 15.2 1.8 0.7 3.6 1.3 5.6 1.8-0.5 2-0.9 3.9-1.2 5.8-1.7 10.7 0.2 18.3 5.3 21.2 1.5 0.9 3.3 1.3 5.2 1.3 5.8 0.2 13-4 20.3-11zm-5.6-13.5c1.8 0.1 3.7 0.1 5.6 0.1s3.8 0 5.6-0.1c-1.8 2.4-3.7 4.6-5.6 6.7-1.9-2.1-3.8-4.3-5.6-6.7zm-12.4-10.3c1 1.7 1.9 3.3 3 4.9-3.1-0.4-6-0.9-8.8-1.5 0.9-2.7 1.9-5.5 3.1-8.3 0.8 1.6 1.7 3.3 2.7 4.9zm-5.8-24.1c2.8-0.6 5.7-1.1 8.8-1.5-1 1.6-2 3.2-3 4.9s-1.9 3.3-2.7 5c-1.3-2.9-2.3-5.7-3.1-8.4zm5.5 13.7c1.3-2.7 2.7-5.4 4.3-8.1 1.5-2.6 3.2-5.2 4.9-7.8 3-0.2 6-0.3 9.1-0.3 3.2 0 6.2 0.1 9.1 0.3 1.8 2.6 3.4 5.2 4.9 7.8 1.6 2.7 3 5.4 4.3 8.1-1.3 2.7-2.7 5.4-4.3 8.1-1.5 2.6-3.2 5.2-4.9 7.8-3 0.2-6 0.3-9.1 0.3-3.2 0-6.2-0.1-9.1-0.3-1.8-2.6-3.4-5.2-4.9-7.8-1.6-2.7-3-5.4-4.3-8.1zm39.1-5.4-2.7-5c-1-1.7-1.9-3.3-3-4.9 3.1 0.4 6 0.9 8.8 1.5-0.9 2.8-1.9 5.6-3.1 8.4zm0 10.8c1.2 2.8 2.2 5.6 3.1 8.3-2.8 0.6-5.7 1.1-8.8 1.5 1-1.6 2-3.2 3-4.9 0.9-1.5 1.8-3.2 2.7-4.9zm2.3 34.7c-0.8 0.5-1.8 0.7-2.9 0.7-4.9 0-11-4-17-10 2.9-3.1 5.7-6.6 8.5-10.5 4.7-0.4 9.2-1.1 13.4-2.1 0.5 1.8 0.8 3.6 1.1 5.4 1.4 8.5 0.3 14.6-3.1 16.5zm5.2-52.7c11.2 3.2 17.9 8.1 17.9 12.6 0 3.9-4.6 7.8-12.7 10.9-1.6 0.6-3.4 1.2-5.2 1.7-1.3-4.1-2.9-8.3-4.9-12.6 2-4.3 3.7-8.5 4.9-12.6zm-8-28.2c1.1 0 2 0.2 2.9 0.7 3.3 1.9 4.5 7.9 3.1 16.5-0.3 1.7-0.7 3.5-1.1 5.4-4.2-0.9-8.7-1.6-13.4-2.1-2.7-3.9-5.6-7.4-8.5-10.5 6-5.9 12.1-10 17-10zm-14.7 20.1c-1.8-0.1-3.7-0.1-5.6-0.1s-3.8 0-5.6 0.1c1.8-2.4 3.7-4.6 5.6-6.7 1.9 2.1 3.8 4.4 5.6 6.7zm-28.7-19.4c0.8-0.5 1.8-0.7 2.9-0.7 4.9 0 11 4 17 10-2.9 3.1-5.7 6.6-8.5 10.5-4.7 0.4-9.2 1.1-13.4 2.1-0.5-1.8-0.8-3.6-1.1-5.4-1.4-8.5-0.3-14.5 3.1-16.5zm-5.2 52.7c-11.2-3.2-17.9-8.1-17.9-12.6 0-3.9 4.6-7.8 12.7-10.9 1.6-0.6 3.4-1.2 5.2-1.7 1.3 4.1 2.9 8.3 4.9 12.6-2 4.3-3.7 8.6-4.9 12.6zm2.1 11c0.3-1.7 0.7-3.5 1.1-5.4 4.2 0.9 8.7 1.6 13.4 2.1 2.7 3.9 5.6 7.4 8.5 10.5-6 5.9-12.1 10-17 10-1.1 0-2-0.2-2.9-0.7-3.4-1.9-4.5-8-3.1-16.5z" fill-rule="nonzero"/></g></svg>
